<?xml version="1.0"?>
<svg viewBox="0 0 64 64" xmlns="http://www.w3.org/2000/svg">
    <defs>
        <style>
            .cls-1{fill:#70ce90;}.cls-2{fill:#8dd8a6;}.cls-3{fill:#bd9f89;}.cls-4{fill:#816551;}.cls-5{fill:#ac876c;}.cls-6{fill:#e8eff4;}.cls-7{fill:#e0747c;}</style>
    </defs>
    <title />
    <g data-name="Layer 29" id="Layer_29">
        <rect class="cls-1" height="8" width="16" x="14" y="34" />
        <path class="cls-2" d="M14,34v6.9c.65.06,1.32.1,2,.1,6.66,0,12.22-3,13.64-7Z" />
        <rect class="cls-3" height="24" width="4" x="6" y="18" />
        <rect class="cls-3" height="24" width="4" x="54" y="18" />
        <path class="cls-4"
            d="M15,2H49A11,11,0,0,1,60,13v1a0,0,0,0,1,0,0H4a0,0,0,0,1,0,0V13A11,11,0,0,1,15,2Z" />
        <path class="cls-4"
            d="M15,2H49A11,11,0,0,1,60,13v1a0,0,0,0,1,0,0H4a0,0,0,0,1,0,0V13A11,11,0,0,1,15,2Z" />
        <path class="cls-3"
            d="M15,2H49A11,11,0,0,1,60,13v1a0,0,0,0,1,0,0H4a0,0,0,0,1,0,0V13A11,11,0,0,1,15,2Z" />
        <rect class="cls-5" height="4" width="60" x="2" y="14" />
        <rect class="cls-5" height="4" width="60" x="2" y="42" />
        <rect class="cls-3" height="16" width="56" x="4" y="46" />
        <path class="cls-6"
            d="M24.85,10A2,2,0,0,0,27,8a2.07,2.07,0,0,1,1.68-2A2,2,0,0,1,31,8V18a2,2,0,0,0,2,2h0a2,2,0,0,0,2-2V8.11A2.07,2.07,0,0,1,36.66,6,2,2,0,0,1,39,8V9.08A2,2,0,0,0,41,11a2,2,0,0,1,2,2v3a4,4,0,0,0,4,4h0a4,4,0,0,0,4-4V10a4,4,0,0,1,4-4h2.49A11,11,0,0,0,49,2H23V7.88A2.07,2.07,0,0,0,24.85,10Z" />
        <rect class="cls-6" height="8" width="20" x="22" y="50" />
        <rect class="cls-6" height="2" width="4" x="20" y="37" />
        <polygon class="cls-7" points="35 42 34 36 40 36 39 42 35 42" />
        <polygon class="cls-7" points="45 42 44 36 50 36 49 42 45 42" />
        <path class="cls-6" d="M48,36H46V34a3,3,0,0,1,3-3h1v2H49a1,1,0,0,0-1,1Z" />
        <path class="cls-6" d="M38,36H36V34a3,3,0,0,1,3-3h1v2H39a1,1,0,0,0-1,1Z" />
    </g>
</svg>